<svg width="30" height="30" viewBox="0 0 30 30" fill="none" xmlns="http://www.w3.org/2000/svg">
<path d="M15 0C6.735 0 0 6.735 0 15C0 23.265 6.735 30 15 30C23.265 30 30 23.265 30 15C30 6.735 23.265 0 15 0ZM19.185 15.795L13.89 21.09C13.665 21.315 13.38 21.42 13.095 21.42C12.81 21.42 12.525 21.315 12.3 21.09C11.865 20.655 11.865 19.935 12.3 19.5L16.8 15L12.3 10.5C11.865 10.065 11.865 9.345 12.3 8.91C12.735 8.475 13.455 8.475 13.89 8.91L19.185 14.205C19.635 14.64 19.635 15.36 19.185 15.795Z" fill="#00D4FF"/>
</svg>
